# xmcd
#
# Track frame offsets:
#	182
#	16187
#	30912
#	46692
#	64615
#	80865
#	96212
#	111050
#	127660
#	144177
#	159580
#	175110
#	193435
#	210135
#
# Disc length: 3025 seconds
#
# Revision: 0
# Processed by: cddbd v1.4PL0 Copyright (c) Steve Scherf et al.
# Submitted via: dBpowerAMP V4.0
#
DISCID=a60bcf0e
DTITLE=Philip Claypol - Perfect World
DYEAR=1999
DGENRE=Country
TTITLE0=I'm Falling Again
TTITLE1=Richest Man I Know
TTITLE2=Perfect World
TTITLE3=Red
TTITLE4=I'll Love You Again
TTITLE5=Nothing But Love
TTITLE6=Jack Daniel and MR. Jim Beam
TTITLE7=Mile Out Of Memphis
TTITLE8=I Made A Fool
TTITLE9=Just Another Guy
TTITLE10=Yellow Rose
TTITLE11=Circus Leaving Town
TTITLE12=Angle Blue
TTITLE13=She Kicked My Dog
EXTD=
EXTT0=
EXTT1=
EXTT2=
EXTT3=
EXTT4=
EXTT5=
EXTT6=
EXTT7=
EXTT8=
EXTT9=
EXTT10=
EXTT11=
EXTT12=
EXTT13=
PLAYORDER=
